<svg xmlns="http://www.w3.org/2000/svg" xmlns:xlink="http://www.w3.org/1999/xlink"><defs><clipPath id="clip0"><path fill="#fff" d="M0 0h402v70H0z"/></clipPath></defs><symbol id="Logo"><g clip-path="url(#clip0)"><path d="M262.47 15.346c-1.286 0-4.244-.329-4.244-1.923a1.157 1.157 0 01.694-1.168c.151-.065.313-.098.477-.097.823 0 1.8.67 2.932.67 1.131 0 1.787-.632 1.787-1.48 0-2.05-5.838-.81-5.838-4.795a3.972 3.972 0 011.313-2.871 4.055 4.055 0 011.402-.825 4.11 4.11 0 011.619-.213c1.003 0 3.42.367 3.42 1.72.011.16-.011.32-.065.47a1.195 1.195 0 01-.636.688 1.224 1.224 0 01-.469.108c-.707 0-1.286-.519-2.315-.519-.758 0-1.44.38-1.44 1.113 0 1.797 5.838.646 5.838 5.061a4.01 4.01 0 01-.347 1.635c-.23.515-.565.979-.986 1.36-.42.382-.917.673-1.457.857a4.207 4.207 0 01-1.685.21zm19.161 0c-.887 0-1.286-.392-1.363-1.265l-1.028-7.11-2.097 7.312a1.44 1.44 0 01-.532.724 1.483 1.483 0 01-1.726 0 1.44 1.44 0 01-.532-.724l-2.096-7.312-1.029 7.11c-.129.81-.476 1.265-1.363 1.265a1.232 1.232 0 01-.935-.346 1.17 1.17 0 01-.351-.92 2.354 2.354 0 010-.29l1.62-9.805a1.74 1.74 0 01.645-.918c.311-.229.69-.35 1.078-.347.39.003.769.127 1.083.354.314.227.547.546.666.911l2.058 6.92 2.057-6.92c.119-.365.353-.684.667-.91a1.872 1.872 0 011.082-.355c.388-.005.766.116 1.075.345.31.23.533.553.636.92l1.671 9.83c.006.097.006.194 0 .291a1.187 1.187 0 01-.787 1.168 1.227 1.227 0 01-.499.072zm12.423 0a1.301 1.301 0 01-.799-.232 1.268 1.268 0 01-.487-.666l-.553-1.72h-4.861l-.579 1.707a1.186 1.186 0 01-.47.692 1.223 1.223 0 01-.816.22c-.341 0-.668-.134-.909-.371a1.256 1.256 0 01-.377-.895 1.067 1.067 0 01.129-.57l3.549-9.463a2 2 0 01.7-1.009 2.049 2.049 0 011.165-.42 2 2 0 011.173.41c.336.258.578.616.692 1.02l3.472 9.463c.086.2.134.415.141.632a1.129 1.129 0 01-.324.847 1.184 1.184 0 01-.846.355zm-4.256-9.982l-1.737 4.997h3.331l-1.594-4.997zm14.75 9.982a1.38 1.38 0 01-1.016-.443l-3.897-4.782v3.795c0 .336-.135.658-.376.895a1.298 1.298 0 01-1.819 0 1.256 1.256 0 01-.377-.895V4.238a1.244 1.244 0 01.37-.968 1.294 1.294 0 01.981-.373h3.073c2.714 0 4.347 1.177 4.347 3.884a3.318 3.318 0 01-.965 2.25 3.421 3.421 0 01-2.263 1.002l3.035 3.226c.214.198.342.47.36.759a1.257 1.257 0 01-.408 1 1.293 1.293 0 01-1.045.328zm-3.202-10.121h-1.801v3.087h1.801a1.499 1.499 0 001.168-.399 1.452 1.452 0 00.452-1.132 1.41 1.41 0 00-.448-1.134 1.455 1.455 0 00-1.172-.384v-.038zm12.795.038h-1.903v8.742c0 .336-.135.657-.377.895a1.296 1.296 0 01-1.818 0 1.256 1.256 0 01-.377-.895V5.263h-1.903a1.148 1.148 0 01-.872-.328 1.113 1.113 0 01-.324-.861c-.004-.156.025-.31.084-.455a1.162 1.162 0 011.112-.722h6.43a1.19 1.19 0 01.853.337 1.15 1.15 0 01.343.84 1.099 1.099 0 01-.341.881 1.134 1.134 0 01-.907.308zm13.786 10.083a6.133 6.133 0 01-2.398-.494 6.049 6.049 0 01-2.001-1.389 5.921 5.921 0 01-1.277-2.056 5.842 5.842 0 01-.342-2.387 5.824 5.824 0 01.334-2.39 5.898 5.898 0 011.276-2.06 6.018 6.018 0 012.006-1.39 6.102 6.102 0 012.402-.485c1.286 0 3.755.417 3.755 1.923a1.077 1.077 0 01-.291.806 1.13 1.13 0 01-.789.358c-.707 0-1.196-.608-2.675-.608-2.173 0-3.292 1.81-3.292 3.91s1.132 3.795 3.292 3.795c1.479 0 2.058-.721 2.778-.721a1.3 1.3 0 01.794.374c.212.213.34.493.363.79-.077 1.645-2.649 2.024-3.935 2.024zm11.497 0a6.131 6.131 0 01-2.394-.497 6.04 6.04 0 01-1.997-1.39 5.879 5.879 0 01-1.615-4.438 5.827 5.827 0 01.334-2.388 5.902 5.902 0 011.272-2.059 6.025 6.025 0 012.001-1.39 6.108 6.108 0 012.399-.49 6.207 6.207 0 012.384.516 6.13 6.13 0 011.99 1.39 6.02 6.02 0 011.279 2.046c.283.76.407 1.567.365 2.374.055.81-.06 1.624-.338 2.389a5.91 5.91 0 01-1.277 2.058 6.033 6.033 0 01-2.003 1.39 6.121 6.121 0 01-2.4.49zm0-10.285c-2.161 0-3.279 1.872-3.279 3.96 0 2.087 1.067 3.947 3.279 3.947 2.212 0 3.292-1.86 3.292-3.948 0-2.087-1.119-3.96-3.292-3.96zm13.503 10.285a6.133 6.133 0 01-2.398-.494 6.043 6.043 0 01-2.002-1.389 5.918 5.918 0 01-1.276-2.056 5.86 5.86 0 01-.343-2.387 5.85 5.85 0 01.339-2.388 5.908 5.908 0 011.276-2.058 6.026 6.026 0 012.004-1.39 6.113 6.113 0 012.4-.49 6.22 6.22 0 012.382.52c.75.328 1.426.8 1.988 1.39a6.02 6.02 0 011.279 2.044c.283.759.409 1.565.369 2.372a5.85 5.85 0 01-.338 2.389 5.91 5.91 0 01-1.277 2.058 6.033 6.033 0 01-2.003 1.39 6.121 6.121 0 01-2.4.49zm0-10.285c-2.161 0-3.28 1.872-3.28 3.96 0 2.087 1.055 3.947 3.28 3.947 2.224 0 3.292-1.86 3.292-3.948 0-2.087-1.119-3.96-3.292-3.96zm16.537 10.285c-.501 0-.835-.278-1.286-.81l-4.655-4.921v4.491c0 .336-.135.658-.376.895a1.3 1.3 0 01-1.819 0 1.256 1.256 0 01-.377-.895V3.986c0-.336.136-.658.377-.895a1.3 1.3 0 011.819 0c.241.237.376.559.376.894v3.796l4.411-4.618a1.388 1.388 0 011.016-.48c.341 0 .668.132.909.37.242.237.377.559.377.894 0 .468-.283.81-.849 1.38l-3.42 3.276 4.128 4.25a1.873 1.873 0 01.733 1.266 1.264 1.264 0 01-.857 1.157 1.32 1.32 0 01-.507.07zm4.347 0a1.302 1.302 0 01-.938-.397 1.269 1.269 0 01-.348-.944V4.023c0-.335.136-.657.377-.894a1.296 1.296 0 011.818 0c.242.237.377.559.377.894v9.982a1.269 1.269 0 01-.775 1.238 1.307 1.307 0 01-.511.103zm12.95 0a1.62 1.62 0 01-.605-.176 1.58 1.58 0 01-.488-.393l-5.543-7.287v6.515c0 .336-.135.657-.376.895a1.298 1.298 0 01-1.819 0 1.256 1.256 0 01-.377-.895V4.023a1.254 1.254 0 01.349-.944 1.302 1.302 0 01.937-.397 1.588 1.588 0 011.106.57l5.543 7.375V4.023c0-.335.135-.657.377-.894a1.296 1.296 0 011.818 0c.241.237.377.559.377.894v9.982a1.265 1.265 0 01-.784 1.242 1.305 1.305 0 01-.515.1zm9.182 0a6.133 6.133 0 01-2.398-.494 6.049 6.049 0 01-2.001-1.389 5.921 5.921 0 01-1.277-2.056 5.842 5.842 0 01-.342-2.387c-.055-.81.06-1.623.338-2.388a5.923 5.923 0 011.276-2.058 6.046 6.046 0 012.004-1.39 6.117 6.117 0 012.4-.49c2.662 0 4.81 1.266 4.81 2.43a1.073 1.073 0 01-.245.877 1.098 1.098 0 01-.836.388c-1.196 0-1.44-1.265-3.729-1.265s-3.292 1.872-3.292 3.96c0 2.087 1.067 3.947 3.292 3.947a2.756 2.756 0 002.132-.724 2.68 2.68 0 00.647-.94c.145-.355.21-.737.192-1.12h-1.775a1.203 1.203 0 01-.919-.315 1.165 1.165 0 01-.367-.886 1.13 1.13 0 01.373-.87 1.166 1.166 0 01.913-.294h2.971c1.118 0 1.53.544 1.53 1.644a5.367 5.367 0 01-.318 2.239 5.427 5.427 0 01-1.215 1.918 5.53 5.53 0 01-1.903 1.266 5.608 5.608 0 01-2.261.397zM202.968 70c14.375 0 26.028-11.464 26.028-25.606 0-14.142-11.653-25.607-26.028-25.607-14.376 0-26.029 11.465-26.029 25.607S188.592 70 202.968 70zM0 22.418h33.706c0 5.605 0 8.856-4.604 8.856h-18.75v7.186h7.716c12.693 0 18.763 4.656 18.763 13.917 0 9.26-6.07 13.916-18.763 13.916H5.594c-4.5 0-5.594-2.15-5.594-6.68V22.418zm10.352 24.873v8.856c0 .797 0 1.265 1.119 1.265h6.533c5.761 0 8.397-1.202 8.397-5.06 0-3.86-2.636-5.061-8.397-5.061h-7.652zm43.441-24.873h21.643c4.514 0 5.581 2.138 5.581 6.68v37.195H76.26c-4.514 0-5.607-2.15-5.607-6.68V31.262H57.651c0 19.634-3.074 26.947-8.333 35.031-4.283 0-11.124-1.012-7.37-7.287 4.515-7.528 5.634-15.662 5.634-32.059 0-4.529 2.327-4.529 6.21-4.529zm35.339 43.875V22.418h4.745c4.501 0 5.594 2.138 5.594 6.668v20.596L112.1 26.365c1.594-2.935 3.639-3.947 7.497-3.947h6.571v43.875h-4.758c-4.514 0-5.607-2.15-5.607-6.68V39.03l-12.68 23.317c-1.53 2.935-3.639 3.947-7.433 3.947h-6.558zm71.707-17.965h-16.294v17.965h-4.758c-4.514 0-5.594-2.15-5.594-6.68V22.418h3.858c4.514 0 6.533 2.138 6.533 6.668v10.399h16.293V22.418h4.758c4.514 0 5.594 2.138 5.594 6.668v37.207h-3.858c-4.513 0-6.532-2.15-6.532-6.68V48.328zm105.862 17.965c-4.514 0-6.533-2.15-6.533-6.68v-11.07c-.103.645-1.376 5.719-9.516 5.719-11.883 0-16.718-7.401-16.718-22.052v-9.792h3.858c4.514 0 6.533 2.138 6.533 6.668v3.124c0 9.73 2.173 13.221 7.96 13.221s7.96-3.492 7.96-13.22v-9.793h3.858c4.514 0 6.533 2.138 6.533 6.668v37.207h-3.935zm22.261-29.402l11.959-12.423c3.794-3.948 11.664-2.075 13.439-.494l-15.303 15.941 15.586 26.378c-6.713.418-11.253.456-13.207-2.821l-9.517-16.118L289 50.378v15.915h-4.797c-4.5 0-5.594-2.15-5.594-6.68V22.418h3.858c4.514 0 6.533 2.138 6.533 6.668l-.038 7.805zm30.979 29.402V22.418h4.758c4.501 0 5.594 2.138 5.594 6.668v20.596l12.629-23.317c1.581-2.935 3.639-3.947 7.433-3.947h6.558v43.875h-4.758c-4.514 0-5.594-2.15-5.594-6.68V39.03l-12.628 23.317c-1.582 2.935-3.64 3.947-7.433 3.947h-6.559zm71.707-17.965h-16.294v17.965h-4.758c-4.514 0-5.594-2.15-5.594-6.68V22.418h3.858c4.514 0 6.533 2.138 6.533 6.668v10.399h16.293V22.418h4.759c4.513 0 5.594 2.138 5.594 6.668v37.207h-3.858c-4.514 0-6.533-2.15-6.533-6.68V48.328z" fill="#532000"/><path d="M196.46 29.377l-1.491-1.266a.7.7 0 01-.296-.493.685.685 0 01.18-.544l3.485-4.01a.68.68 0 01.514-.231.692.692 0 01.515.23l2.16 1.822a.607.607 0 01.226.7.621.621 0 01-.136.224.648.648 0 01-.938.063l-1.647-1.392-.9 1.038.862.708c1.054.886 1.427 1.974.489 3.05a1.981 1.981 0 01-1.488.74 1.988 1.988 0 01-1.535-.639zm1.582-2.316l-.771-.645-1.029 1.19.849.72a.811.811 0 00.61.274.823.823 0 00.611-.274c.348-.392.296-.835-.27-1.265zm2.649 5.833l-1.363-1.126a.697.697 0 01-.295-.487.671.671 0 01.179-.538l3.537-4.074a.715.715 0 011.003-.076.695.695 0 01.077.987l-1.286 1.468.746.632a2.038 2.038 0 01.97 1.436 1.991 1.991 0 01-.507 1.651 2.01 2.01 0 01-.666.539 2.052 2.052 0 01-1.685.07 2.024 2.024 0 01-.71-.482zm1.698-2.379l-.656-.557-1.093 1.266.746.632a.834.834 0 00.664.254.85.85 0 00.622-.342c.257-.304.231-.785-.283-1.215v-.038zm1.054 4.909a.668.668 0 010-1.012l3.601-4.175a.67.67 0 01.491-.283.69.69 0 01.538.182.669.669 0 01.223.773.666.666 0 01-.159.239l-3.665 4.137a.678.678 0 01-.482.303.689.689 0 01-.547-.164zm3.678 3.049a3.429 3.429 0 01-.192-4.698 3.57 3.57 0 014.745-.565c.527.443 1.414 1.493.874 2.113a.602.602 0 01-.659.215.603.603 0 01-.215-.114c-.283-.24-.27-.658-.888-1.177a1.918 1.918 0 00-1.494-.37 1.923 1.923 0 00-.732.285 1.879 1.879 0 00-.551.553 1.817 1.817 0 00-.454 2.113c.106.236.26.447.454.62.617.519 1.118.417 1.414.67a.652.652 0 010 .886c-.54.683-1.762-.076-2.302-.531zm8.694.076l-.785-.67-3.151 3.63a.678.678 0 01-.49.283.695.695 0 01-.538-.182.67.67 0 01-.224-.773.68.68 0 01.159-.239l3.151-3.63-.784-.671a.584.584 0 01-.248-.432.583.583 0 01.17-.467.654.654 0 01.447-.232.655.655 0 01.479.157l2.675 2.239a.62.62 0 010 .91.637.637 0 01-.861.076zm.72 4.769l-.81-.683-1.055 1.265a.715.715 0 01-1.003.076.695.695 0 01-.077-.987l3.511-4.06a.684.684 0 01.509-.278.705.705 0 01.545.201l1.286 1.076c.254.183.467.416.625.684a2.213 2.213 0 01-.98 3.134 2.274 2.274 0 01-1.786.063 2.246 2.246 0 01-.765-.49zm2.057-2.53l-.733-.62-1.286 1.518.733.62a.943.943 0 00.73.248.95.95 0 00.672-.374.937.937 0 00.264-.71.931.931 0 00-.354-.67l-.026-.012zm1.016 8.172a3.439 3.439 0 01-1.017-2.312 3.432 3.432 0 01.844-2.38 3.567 3.567 0 014.738-.558c.337.292.609.648.803 1.046a3.23 3.23 0 01.111 2.564 3.25 3.25 0 01-.708 1.11 3.263 3.263 0 01-.997.876 3.324 3.324 0 01-3.774-.345zm3.704-4.263a1.958 1.958 0 00-1.504-.348 1.953 1.953 0 00-1.287.842 1.797 1.797 0 00-.689 1.374 1.79 1.79 0 00.64 1.398 1.836 1.836 0 001.503.403 1.839 1.839 0 001.273-.885c.2-.173.362-.384.475-.621a1.859 1.859 0 00-.411-2.163zm-32.6-8.691l-1.505-1.265a.69.69 0 01-.288-.49.669.669 0 01.186-.535l3.472-4.01a.687.687 0 011.041 0l1.389 1.176a1.642 1.642 0 01.678 1.14 1.627 1.627 0 01-.395 1.264 1.438 1.438 0 01-.719.49 1.462 1.462 0 01-.875-.01 1.604 1.604 0 010 2.139 1.982 1.982 0 01-1.469.718 2.008 2.008 0 01-1.515-.617zm1.62-2.315l-.758-.646-1.029 1.19.849.72a.811.811 0 00.611.274.82.82 0 00.61-.273c.283-.393.283-.797-.283-1.265zm1.544-2.19l-.566-.467-.926 1.063.566.48a.687.687 0 00.558.217.703.703 0 00.522-.293.673.673 0 00.154-.534.673.673 0 00-.308-.465zm2.584 9.477c-.205-.177-.244-.405-.257-.797l-.141-3.656-1.621 1.872a.725.725 0 01-1.015.076.703.703 0 01-.078-1l3.653-4.213a.677.677 0 01.487-.248.693.693 0 01.516.185.649.649 0 01.238.472.653.653 0 01-.2.49l-1.286 1.606 3.485-.38a.835.835 0 01.605.153.69.69 0 01.253.468.68.68 0 01-.163.506c-.168.19-.412.228-.849.266l-2.572.19.18 3.2a1.003 1.003 0 01-.167.797.672.672 0 01-.83.202.674.674 0 01-.238-.19zm8.527-.62l-5.582 2.53a.676.676 0 01-.733-.076.714.714 0 01-.276-.473.703.703 0 01.148-.526.588.588 0 01.257-.19l1.286-.595 1.054-3.934a.713.713 0 01.155-.291.764.764 0 011.029 0 .67.67 0 01.192.708l-.733 2.784 2.572-1.19a.705.705 0 01.759.089.717.717 0 01.116.987.926.926 0 01-.244.177zm-1.171 6.794a3.44 3.44 0 01-.923-2.273 3.432 3.432 0 01.833-2.306 3.539 3.539 0 012.173-1.19 3.57 3.57 0 012.431.518c.515.443 1.402 1.48.862 2.113a.605.605 0 01-.649.21.608.608 0 01-.213-.109c-.296-.24-.283-.67-.9-1.189a1.918 1.918 0 00-1.49-.358 1.919 1.919 0 00-1.275.839 1.843 1.843 0 00-.453.616 1.804 1.804 0 000 1.488c.106.234.26.444.453.616.617.519 1.119.417 1.415.67a.654.654 0 01.064.886c-.553.696-1.788-.063-2.328-.531zm6.237 5.238a.654.654 0 01-.064-1.012l1.389-1.595-2.276-1.923-1.389 1.607a.727.727 0 01-1.19-.142.71.71 0 01-.041-.54.692.692 0 01.138-.242l3.601-4.137a.717.717 0 011.174.139.693.693 0 01-.094.772l-1.351 1.556 2.238 1.923 1.35-1.556a.694.694 0 01.491-.283.692.692 0 01.538.182.653.653 0 01.064 1.012l-3.587 4.137a.69.69 0 01-.991.101zm3.665 3.086a3.444 3.444 0 01-1.066-2.325 3.43 3.43 0 01.84-2.413 3.568 3.568 0 014.792-.525c.335.293.608.65.802 1.048a3.258 3.258 0 01-.584 3.684 3.28 3.28 0 01-1.001.877 3.332 3.332 0 01-3.783-.346zm3.704-4.276a1.958 1.958 0 00-1.507-.343 1.95 1.95 0 00-1.284.85 1.778 1.778 0 00-.581 2.16c.109.245.274.464.481.64a1.836 1.836 0 001.525.406c.269-.05.523-.157.744-.316a1.8 1.8 0 00.532-.601 1.91 1.91 0 00.664-1.379 1.886 1.886 0 00-.574-1.417zm-30.696-6.92a.66.66 0 01-.242-.506.66.66 0 01.242-.506l3.189-3.67-2.289-1.91-3.177 3.67a.73.73 0 01-1.016.076.707.707 0 01-.249-.485.705.705 0 01.172-.515l3.524-4.049a.673.673 0 01.491-.283.693.693 0 01.538.182l3.356 2.834a.657.657 0 01.178.786.657.657 0 01-.178.226l-3.511 4.023a.67.67 0 01-.484.297.692.692 0 01-.544-.17zm4.796.949l-.797-.67-1.055 1.264a.73.73 0 01-1.243-.092.695.695 0 01-.018-.575.717.717 0 01.168-.244l3.524-4.06a.69.69 0 01.506-.285.701.701 0 01.548.196l1.286 1.088a2.224 2.224 0 01.944 1.538 2.21 2.21 0 01-.509 1.725c-.201.237-.45.43-.731.569a2.313 2.313 0 01-1.824.09 2.284 2.284 0 01-.786-.494l-.013-.05zm2.071-2.53l-.733-.62-1.286 1.505.746.62a1.013 1.013 0 001.345-.172.976.976 0 00-.059-1.334h-.013z" fill="#fff"/><path d="M194.609 50.884a3.473 3.473 0 01-1.253-1.639 3.412 3.412 0 01-.092-2.048 3.452 3.452 0 011.1-1.742 3.573 3.573 0 013.956-.445 3.5 3.5 0 011.472 1.452 3.42 3.42 0 01-.464 3.89 3.3 3.3 0 01-.993.85 3.347 3.347 0 01-3.726-.318zm3.703-4.276a2.248 2.248 0 00-1.12-.764 2.285 2.285 0 00-1.363.013 2.246 2.246 0 00-1.106.784 2.188 2.188 0 00-.059 2.556c.26.38.633.67 1.068.833.435.163.911.188 1.361.074a2.256 2.256 0 001.155-.713 1.9 1.9 0 00.65-1.378 1.897 1.897 0 00-.586-1.406zm1.711 8.818a3.444 3.444 0 01-1.018-2.313 3.431 3.431 0 01.844-2.38 3.567 3.567 0 014.739-.558c.527.443 1.414 1.48.861 2.113a.601.601 0 01-.648.21.606.606 0 01-.213-.109c-.296-.253-.283-.67-.9-1.189a1.907 1.907 0 00-1.491-.364 1.873 1.873 0 00-1.274.845 1.83 1.83 0 00-.613 1.36 1.83 1.83 0 00.613 1.36c.617.519 1.106.417 1.414.67a.653.653 0 01.175.443.653.653 0 01-.175.443c-.54.683-1.723-.076-2.314-.531zm8.706.076l-.798-.658-3.137 3.618a.693.693 0 01-.491.283.69.69 0 01-.538-.182.657.657 0 01-.242-.506.646.646 0 01.242-.506l3.151-3.63-.798-.659a.614.614 0 01-.209-.455.6.6 0 01.209-.456.654.654 0 01.447-.232.656.656 0 01.479.156l2.572 2.24a.634.634 0 01.236.439.615.615 0 01-.159.472.615.615 0 01-.463.267.628.628 0 01-.501-.191zm-.54 6.793a3.468 3.468 0 01-1.226-1.645 3.411 3.411 0 01-.073-2.04 3.454 3.454 0 011.106-1.725 3.575 3.575 0 013.939-.438 3.492 3.492 0 011.468 1.44 3.424 3.424 0 01-.43 3.877 3.302 3.302 0 01-1.003.873 3.343 3.343 0 01-2.606.29 3.324 3.324 0 01-1.175-.632zm3.716-4.276a2.252 2.252 0 00-1.12-.764 2.289 2.289 0 00-1.364.013 2.247 2.247 0 00-1.105.785 2.188 2.188 0 00-.059 2.555c.26.38.633.671 1.068.834.435.162.911.188 1.361.073a2.256 2.256 0 001.155-.712 1.902 1.902 0 00.65-1.378 1.896 1.896 0 00-.586-1.405zm-29.14-9.868c2.739 9.868 10.622 16.358 21.026 16.801 1.286 0 1.196-2.011-.142-2.062-9.503-.405-16.422-6.49-18.904-15.41-.36-1.265-2.34-.607-1.98.671z" fill="#fff"/><path d="M216.008 26.725l1.121 1.007a2.524 2.524 0 003.525-.16l20.838-22.466a2.426 2.426 0 00-.161-3.467L240.21.633a2.524 2.524 0 00-3.525.159l-20.838 22.466a2.427 2.427 0 00.161 3.467z" fill="#532000"/></g></symbol><symbol id="scroll 1"><path d="M13.012 31.915L8.918 27.56l1.494-1.427 2.6 2.756 2.588-2.756 1.507 1.415-4.095 4.366z" fill="#532000"/><path d="M13 39.463C6.122 39.463.524 33.848.524 26.94V13.073C.524 6.165 6.122.55 13 .55c6.878 0 12.476 5.616 12.476 12.524V26.94c0 6.897-5.598 12.524-12.476 12.524z" stroke="#532000"/><path d="M14.58 8.598a1.58 1.58 0 11-3.16 0 1.58 1.58 0 113.16 0zm0 6.329a1.58 1.58 0 11-3.16 0 1.58 1.58 0 113.16 0zm0 6.317a1.58 1.58 0 11-3.16 0A1.58 1.58 0 0113 19.659c.875 0 1.58.72 1.58 1.585z" fill="#532000"/></symbol></svg>