<svg width="26" height="40" fill="none" xmlns="http://www.w3.org/2000/svg"><path d="M13.012 31.915L8.918 27.56l1.494-1.427 2.6 2.756 2.588-2.756 1.507 1.415-4.095 4.366z" fill="#532000"/><path d="M13 39.463C6.122 39.463.524 33.848.524 26.94V13.073C.524 6.165 6.122.55 13 .55c6.878 0 12.476 5.616 12.476 12.524V26.94c0 6.897-5.598 12.524-12.476 12.524z" stroke="#532000"/><path d="M14.58 8.598a1.58 1.58 0 11-3.16 0 1.58 1.58 0 113.16 0zm0 6.329a1.58 1.58 0 11-3.16 0 1.58 1.58 0 113.16 0zm0 6.317a1.58 1.58 0 11-3.16 0A1.58 1.58 0 0113 19.659c.875 0 1.58.72 1.58 1.585z" fill="#532000"/></svg>